<svg 
 xmlns="http://www.w3.org/2000/svg"
 xmlns:xlink="http://www.w3.org/1999/xlink"
 width="16px" height="16px">
<g filter="url(#Filter_0)">
<path fill-rule="evenodd"
 d="M15.000,16.001 L13.000,16.001 L11.000,16.001 L8.000,16.001 C7.448,16.001 7.000,15.553 7.000,15.000 C7.000,14.448 7.448,14.000 8.000,14.000 L11.000,14.000 L14.000,14.000 L14.000,13.001 L14.000,3.001 L14.000,2.000 L13.000,2.000 L10.000,2.000 L8.000,2.000 C7.448,2.000 7.000,1.552 7.000,1.000 C7.000,0.448 7.448,0.000 8.000,0.000 L10.000,0.000 L13.000,0.000 L15.000,0.000 C15.552,0.000 16.000,0.448 16.000,1.000 L16.000,15.000 C16.000,15.553 15.552,16.001 15.000,16.001 ZM7.000,4.001 L11.000,8.000 L7.000,12.000 L7.000,9.000 L1.000,9.000 C0.448,9.000 0.000,8.553 0.000,8.000 C0.000,7.449 0.448,7.000 1.000,7.000 L7.000,7.000 L7.000,4.001 Z"/>
</g>
</svg>